<mxfile host="app.diagrams.net" modified="2022-01-28T09:06:02.874Z" agent="5.0 (Windows NT 10.0; Win64; x64) AppleWebKit/537.36 (KHTML, like Gecko) Chrome/97.0.4692.99 Safari/537.36" etag="8mFQwDEieXa5gMUNG5aG" version="14.9.0" type="github">
  <diagram id="mviTxCcZAA_Zl4PDrszC" name="Page-1">
    <mxGraphModel dx="782" dy="428" grid="1" gridSize="10" guides="1" tooltips="1" connect="1" arrows="1" fold="1" page="1" pageScale="1" pageWidth="850" pageHeight="1100" math="0" shadow="0">
      <root>
        <mxCell id="0" />
        <mxCell id="1" parent="0" />
        <mxCell id="A_6RlQsViJoIYwN7hrxt-2" value="" style="whiteSpace=wrap;html=1;aspect=fixed;" vertex="1" parent="1">
          <mxGeometry x="70" y="40" width="270" height="270" as="geometry" />
        </mxCell>
        <mxCell id="A_6RlQsViJoIYwN7hrxt-3" value="" style="whiteSpace=wrap;html=1;aspect=fixed;" vertex="1" parent="1">
          <mxGeometry x="500" y="30" width="270" height="270" as="geometry" />
        </mxCell>
        <mxCell id="A_6RlQsViJoIYwN7hrxt-4" value="riskpod-etl-service" style="text;html=1;strokeColor=none;fillColor=none;align=center;verticalAlign=middle;whiteSpace=wrap;rounded=0;" vertex="1" parent="1">
          <mxGeometry x="120" y="60" width="150" height="20" as="geometry" />
        </mxCell>
        <mxCell id="A_6RlQsViJoIYwN7hrxt-5" value="riskpod-document-serach-service" style="text;html=1;strokeColor=none;fillColor=none;align=center;verticalAlign=middle;whiteSpace=wrap;rounded=0;" vertex="1" parent="1">
          <mxGeometry x="530" y="50" width="180" height="20" as="geometry" />
        </mxCell>
        <mxCell id="A_6RlQsViJoIYwN7hrxt-6" value="NFS" style="whiteSpace=wrap;html=1;aspect=fixed;" vertex="1" parent="1">
          <mxGeometry x="830" y="30" width="270" height="270" as="geometry" />
        </mxCell>
        <mxCell id="A_6RlQsViJoIYwN7hrxt-7" value="riskpod-file-service" style="text;html=1;strokeColor=none;fillColor=none;align=center;verticalAlign=middle;whiteSpace=wrap;rounded=0;" vertex="1" parent="1">
          <mxGeometry x="860" y="50" width="150" height="20" as="geometry" />
        </mxCell>
        <mxCell id="A_6RlQsViJoIYwN7hrxt-8" value="" style="outlineConnect=0;fontColor=#232F3E;gradientColor=none;fillColor=#3334B9;strokeColor=none;dashed=0;verticalLabelPosition=bottom;verticalAlign=top;align=center;html=1;fontSize=12;fontStyle=0;aspect=fixed;pointerEvents=1;shape=mxgraph.aws4.rds_oracle_instance;" vertex="1" parent="1">
          <mxGeometry x="166" y="380" width="78" height="78" as="geometry" />
        </mxCell>
        <mxCell id="A_6RlQsViJoIYwN7hrxt-9" value="M7 DB" style="text;html=1;strokeColor=none;fillColor=none;align=center;verticalAlign=middle;whiteSpace=wrap;rounded=0;" vertex="1" parent="1">
          <mxGeometry x="185" y="470" width="40" height="20" as="geometry" />
        </mxCell>
        <mxCell id="A_6RlQsViJoIYwN7hrxt-11" value="" style="aspect=fixed;html=1;points=[];align=center;image;fontSize=12;image=img/lib/azure2/compute/Azure_Spring_Cloud.svg;" vertex="1" parent="1">
          <mxGeometry x="157" y="110" width="68" height="64" as="geometry" />
        </mxCell>
        <mxCell id="A_6RlQsViJoIYwN7hrxt-13" value="" style="aspect=fixed;html=1;points=[];align=center;image;fontSize=12;image=img/lib/mscae/Azure_Database_for_PostgreSQL_servers.svg;" vertex="1" parent="1">
          <mxGeometry x="391" y="25" width="68.4" height="90" as="geometry" />
        </mxCell>
        <mxCell id="A_6RlQsViJoIYwN7hrxt-14" value="" style="endArrow=classic;html=1;exitX=0.417;exitY=1.021;exitDx=0;exitDy=0;exitPerimeter=0;" edge="1" parent="1" source="A_6RlQsViJoIYwN7hrxt-11">
          <mxGeometry width="50" height="50" relative="1" as="geometry">
            <mxPoint x="175" y="190" as="sourcePoint" />
            <mxPoint x="200" y="370" as="targetPoint" />
          </mxGeometry>
        </mxCell>
        <mxCell id="A_6RlQsViJoIYwN7hrxt-15" value="Fetch PDMS View Data from M7" style="text;html=1;strokeColor=none;fillColor=none;align=center;verticalAlign=middle;whiteSpace=wrap;rounded=0;" vertex="1" parent="1">
          <mxGeometry x="185" y="220" width="96" height="20" as="geometry" />
        </mxCell>
        <mxCell id="A_6RlQsViJoIYwN7hrxt-17" value="" style="endArrow=classic;html=1;exitX=0.417;exitY=1.021;exitDx=0;exitDy=0;exitPerimeter=0;" edge="1" parent="1">
          <mxGeometry width="50" height="50" relative="1" as="geometry">
            <mxPoint x="224.99599999999998" y="132.67400000000004" as="sourcePoint" />
            <mxPoint x="390" y="90" as="targetPoint" />
          </mxGeometry>
        </mxCell>
        <mxCell id="A_6RlQsViJoIYwN7hrxt-20" value="RV2 RiskPod DB" style="text;html=1;strokeColor=none;fillColor=none;align=center;verticalAlign=middle;whiteSpace=wrap;rounded=0;" vertex="1" parent="1">
          <mxGeometry x="400" y="132" width="40" height="20" as="geometry" />
        </mxCell>
        <mxCell id="A_6RlQsViJoIYwN7hrxt-21" value="" style="html=1;dashed=0;whitespace=wrap;fillColor=#2875E2;strokeColor=#ffffff;points=[[0.005,0.63,0],[0.1,0.2,0],[0.9,0.2,0],[0.5,0,0],[0.995,0.63,0],[0.72,0.99,0],[0.5,1,0],[0.28,0.99,0]];shape=mxgraph.kubernetes.icon;prIcon=pod" vertex="1" parent="1">
          <mxGeometry x="120" y="84" width="50" height="48" as="geometry" />
        </mxCell>
        <mxCell id="A_6RlQsViJoIYwN7hrxt-22" value="" style="aspect=fixed;html=1;points=[];align=center;image;fontSize=12;image=img/lib/azure2/compute/Azure_Spring_Cloud.svg;" vertex="1" parent="1">
          <mxGeometry x="586" y="110" width="68" height="64" as="geometry" />
        </mxCell>
        <mxCell id="A_6RlQsViJoIYwN7hrxt-23" value="" style="html=1;dashed=0;whitespace=wrap;fillColor=#2875E2;strokeColor=#ffffff;points=[[0.005,0.63,0],[0.1,0.2,0],[0.9,0.2,0],[0.5,0,0],[0.995,0.63,0],[0.72,0.99,0],[0.5,1,0],[0.28,0.99,0]];shape=mxgraph.kubernetes.icon;prIcon=pod" vertex="1" parent="1">
          <mxGeometry x="244" y="80" width="680" height="56" as="geometry" />
        </mxCell>
        <mxCell id="A_6RlQsViJoIYwN7hrxt-24" value="" style="endArrow=classic;startArrow=classic;html=1;" edge="1" parent="1">
          <mxGeometry width="50" height="50" relative="1" as="geometry">
            <mxPoint x="459.4" y="95" as="sourcePoint" />
            <mxPoint x="570" y="120" as="targetPoint" />
          </mxGeometry>
        </mxCell>
        <mxCell id="A_6RlQsViJoIYwN7hrxt-25" value="" style="shape=image;html=1;verticalAlign=top;verticalLabelPosition=bottom;labelBackgroundColor=#ffffff;imageAspect=0;aspect=fixed;image=https://cdn1.iconfinder.com/data/icons/unicons-line-vol-5/24/react-128.png" vertex="1" parent="1">
          <mxGeometry x="702" y="430" width="128" height="128" as="geometry" />
        </mxCell>
        <mxCell id="A_6RlQsViJoIYwN7hrxt-26" value="RiskPod Document Search Engine UI" style="text;html=1;strokeColor=none;fillColor=none;align=center;verticalAlign=middle;whiteSpace=wrap;rounded=0;" vertex="1" parent="1">
          <mxGeometry x="696" y="570" width="140" height="20" as="geometry" />
        </mxCell>
        <mxCell id="A_6RlQsViJoIYwN7hrxt-27" value="" style="endArrow=classic;startArrow=classic;html=1;" edge="1" parent="1">
          <mxGeometry width="50" height="50" relative="1" as="geometry">
            <mxPoint x="730" y="440" as="sourcePoint" />
            <mxPoint x="650" y="180" as="targetPoint" />
          </mxGeometry>
        </mxCell>
        <mxCell id="A_6RlQsViJoIYwN7hrxt-28" value="Fetch Document metadata" style="text;html=1;align=center;verticalAlign=middle;resizable=0;points=[];autosize=1;strokeColor=none;" vertex="1" parent="1">
          <mxGeometry x="630" y="300" width="160" height="20" as="geometry" />
        </mxCell>
        <mxCell id="A_6RlQsViJoIYwN7hrxt-29" value="" style="pointerEvents=1;shadow=0;dashed=0;html=1;strokeColor=none;fillColor=#005F4B;labelPosition=center;verticalLabelPosition=bottom;verticalAlign=top;align=center;outlineConnect=0;shape=mxgraph.veeam2.nas;" vertex="1" parent="1">
          <mxGeometry x="1160" y="260" width="70" height="70" as="geometry" />
        </mxCell>
        <mxCell id="A_6RlQsViJoIYwN7hrxt-30" value="M7 NAS" style="text;html=1;align=center;verticalAlign=middle;resizable=0;points=[];autosize=1;strokeColor=none;" vertex="1" parent="1">
          <mxGeometry x="1170" y="350" width="60" height="20" as="geometry" />
        </mxCell>
        <mxCell id="A_6RlQsViJoIYwN7hrxt-31" value="" style="html=1;dashed=0;whitespace=wrap;fillColor=#2875E2;strokeColor=#ffffff;points=[[0.005,0.63,0],[0.1,0.2,0],[0.9,0.2,0],[0.5,0,0],[0.995,0.63,0],[0.72,0.99,0],[0.5,1,0],[0.28,0.99,0]];shape=mxgraph.kubernetes.icon;prIcon=pod" vertex="1" parent="1">
          <mxGeometry x="960" y="70" width="90" height="90" as="geometry" />
        </mxCell>
        <mxCell id="A_6RlQsViJoIYwN7hrxt-34" value="" style="html=1;dashed=0;whitespace=wrap;fillColor=#2875E2;strokeColor=#ffffff;points=[[0.005,0.63,0],[0.1,0.2,0],[0.9,0.2,0],[0.5,0,0],[0.995,0.63,0],[0.72,0.99,0],[0.5,1,0],[0.28,0.99,0]];shape=mxgraph.kubernetes.icon;prIcon=pv" vertex="1" parent="1">
          <mxGeometry x="1000" y="141" width="50" height="49" as="geometry" />
        </mxCell>
        <mxCell id="A_6RlQsViJoIYwN7hrxt-36" value="" style="endArrow=classic;startArrow=classic;html=1;entryX=0.5;entryY=1;entryDx=0;entryDy=0;entryPerimeter=0;" edge="1" parent="1" source="A_6RlQsViJoIYwN7hrxt-29" target="A_6RlQsViJoIYwN7hrxt-34">
          <mxGeometry width="50" height="50" relative="1" as="geometry">
            <mxPoint x="990" y="250" as="sourcePoint" />
            <mxPoint x="1040" y="200" as="targetPoint" />
          </mxGeometry>
        </mxCell>
        <mxCell id="A_6RlQsViJoIYwN7hrxt-37" value="" style="aspect=fixed;html=1;points=[];align=center;image;fontSize=12;image=img/lib/azure2/compute/Azure_Spring_Cloud.svg;" vertex="1" parent="1">
          <mxGeometry x="910" y="77" width="68" height="64" as="geometry" />
        </mxCell>
        <mxCell id="A_6RlQsViJoIYwN7hrxt-38" value="" style="endArrow=classic;startArrow=classic;html=1;" edge="1" parent="1" source="A_6RlQsViJoIYwN7hrxt-25" target="A_6RlQsViJoIYwN7hrxt-37">
          <mxGeometry width="50" height="50" relative="1" as="geometry">
            <mxPoint x="810" y="450" as="sourcePoint" />
            <mxPoint x="730" y="190" as="targetPoint" />
          </mxGeometry>
        </mxCell>
        <mxCell id="A_6RlQsViJoIYwN7hrxt-39" value="Fetch File for Download" style="text;html=1;strokeColor=none;fillColor=none;align=center;verticalAlign=middle;whiteSpace=wrap;rounded=0;" vertex="1" parent="1">
          <mxGeometry x="830" y="350" width="110" height="20" as="geometry" />
        </mxCell>
      </root>
    </mxGraphModel>
  </diagram>
</mxfile>
